<?xml version="1.0" encoding="utf-8"?>
<!-- Generator: Adobe Illustrator 27.1.1, SVG Export Plug-In . SVG Version: 6.00 Build 0)  -->
<svg version="1.1" id="Layer_1" xmlns="http://www.w3.org/2000/svg" xmlns:xlink="http://www.w3.org/1999/xlink" x="0px" y="0px"
	 viewBox="0 0 95 95" style="enable-background:new 0 0 95 95;" xml:space="preserve">
<g>
	<path d="M77.6,18.3C72,15.6,66,13.7,59.7,12.6c-0.8,1.4-1.7,3.3-2.3,4.8c-6.7-1-13.3-1-19.8,0C37,15.9,36,14,35.3,12.6
		c-6.3,1.1-12.3,3-17.9,5.6C6,35.4,3,52.1,4.5,68.5c7.5,5.6,14.8,9,21.9,11.2c1.8-2.4,3.3-5,4.7-7.7c-2.6-1-5.1-2.2-7.4-3.6
		c0.6-0.5,1.2-0.9,1.8-1.4c14.3,6.7,29.8,6.7,43.9,0c0.6,0.5,1.2,1,1.8,1.4c-2.3,1.4-4.8,2.6-7.4,3.6c1.4,2.7,2.9,5.3,4.7,7.7
		c7.2-2.2,14.4-5.6,22-11.3C92.3,49.4,87.4,32.9,77.6,18.3z M33.1,58.4c-4.3,0-7.8-4-7.8-8.9s3.4-8.9,7.8-8.9c4.4,0,7.9,4,7.8,8.9
		C40.9,54.4,37.5,58.4,33.1,58.4z M61.9,58.4c-4.3,0-7.8-4-7.8-8.9s3.4-8.9,7.8-8.9c4.4,0,7.9,4,7.8,8.9
		C69.7,54.4,66.3,58.4,61.9,58.4z"/>
</g>
</svg>
