<?xml version="1.0" encoding="utf-8"?>
<!-- Generator: Adobe Illustrator 27.1.1, SVG Export Plug-In . SVG Version: 6.00 Build 0)  -->
<svg version="1.1" id="Layer_1" xmlns="http://www.w3.org/2000/svg" xmlns:xlink="http://www.w3.org/1999/xlink" x="0px" y="0px"
	 viewBox="0 0 95 95" style="enable-background:new 0 0 95 95;" xml:space="preserve">
<style type="text/css">
	.st0{fill-rule:evenodd;clip-rule:evenodd;}
</style>
<path class="st0" d="M44,9.6H33.7c-5.7,0-10.3,4.6-10.3,10.3S28,30.2,33.7,30.2H44V9.6z M44,2.6h7h10.3c9.6,0,17.3,7.7,17.3,17.3
	c0,5.6-2.7,10.7-6.9,13.8c4.2,3.2,6.9,8.2,6.9,13.8c0,9.6-7.7,17.3-17.3,17.3c-3.9,0-7.4-1.3-10.3-3.4v3.4v10.3
	c0,9.6-7.7,17.3-17.3,17.3c-9.6,0-17.3-7.7-17.3-17.3c0-5.6,2.7-10.7,6.9-13.8c-4.2-3.2-6.9-8.2-6.9-13.8c0-5.6,2.7-10.7,6.9-13.8
	c-4.2-3.2-6.9-8.2-6.9-13.8c0-9.6,7.7-17.3,17.3-17.3H44z M51,9.6v20.6h10.3c5.7,0,10.3-4.6,10.3-10.3S67,9.6,61.3,9.6H51z
	 M33.7,57.8H44V47.5v0v0V37.2H33.7c-5.7,0-10.3,4.6-10.3,10.3C23.4,53.2,28,57.8,33.7,57.8L33.7,57.8z M23.4,75.1
	c0-5.7,4.6-10.3,10.3-10.3l0,0H44v10.3c0,5.7-4.6,10.3-10.3,10.3S23.4,80.8,23.4,75.1z M51,47.5c0-5.7,4.6-10.3,10.3-10.3
	c5.7,0,10.3,4.6,10.3,10.3S67,57.8,61.3,57.8C55.6,57.8,51,53.2,51,47.5L51,47.5z"/>
</svg>
