<?xml version="1.0" encoding="utf-8"?>
<!-- Generator: Adobe Illustrator 27.1.1, SVG Export Plug-In . SVG Version: 6.00 Build 0)  -->
<svg version="1.1" id="Layer_1" xmlns="http://www.w3.org/2000/svg" xmlns:xlink="http://www.w3.org/1999/xlink" x="0px" y="0px"
	 viewBox="0 0 95 95" style="enable-background:new 0 0 95 95;" xml:space="preserve">
<path d="M53.3,2.7C28.5-0.5,5.9,17,2.7,41.8C-0.5,66.5,17,89.1,41.7,92.3C66.5,95.5,89.1,78,92.3,53.2C95.5,28.5,78,5.9,53.3,2.7z
	 M62.6,30.9c-0.8,0-1.6,0.3-2.2,0.9L43.6,48.6l-1.2-1.2L40,45C56.5,28.5,59.5,28.4,62.6,30.9L62.6,30.9z M44.2,49.2L61,32.5
	c0.9-0.9,2.4-1,3.3-0.1c0.9,0.9,1,2.4,0.1,3.3c-0.1,0.1-0.1,0.1-0.2,0.2L46.5,51.4L44.2,49.2L44.2,49.2z M45.5,51.8l-4.1,0.9
	c-0.1,0-0.2,0-0.3-0.1c-0.1-0.1,0-0.2,0-0.3l2.4-2.4L45.5,51.8L45.5,51.8z M34.9,50.1l4.4-4.4l3.3,3.3l-7.5,1.6
	c-0.1,0-0.3,0-0.3-0.1C34.8,50.3,34.8,50.1,34.9,50.1L34.9,50.1z M21.2,72.9c-0.2,0-0.3-0.2-0.3-0.3c0,0,0,0,0,0
	c0-0.1,0-0.1,0.1-0.2h0l3.6-3.6l4.6,4.6L21.2,72.9L21.2,72.9z M30.3,68.1c-0.4,0.2-0.5,0.6-0.4,1l0.8,3.3c0.1,0.3-0.1,0.5-0.3,0.6
	c-0.2,0-0.3,0-0.4-0.1h0l-3.5-3.5l-1.1-1.1L39.4,54l6.9-1.5l3.3,3.3C44.8,60,38.4,64.1,30.3,68.1L30.3,68.1z M50.2,55.2L50.2,55.2
	L47,52.1l17.7-15.5c0.2-0.1,0.3-0.3,0.4-0.5C64.6,41.1,57.5,48.3,50.2,55.2L50.2,55.2z M64,30.9L64,30.9c-2.7-2.7-2.7-7,0-9.7
	c2.5-2.5,6.5-2.7,9.2-0.4l-6.1,6.1c-0.2,0.2-0.2,0.5,0,0.6c0,0,0,0,0,0l4.7,4.7C69.2,33.5,66.1,33,64,30.9L64,30.9z M73.7,30.9
	c-0.3,0.3-0.7,0.6-1,0.8h0l-4.5-4.5l5.8-5.8C76.4,24.1,76.3,28.3,73.7,30.9z M73.3,25.1c-0.2,0.1-0.3,0.4-0.2,0.6
	c0.3,0.6,0.2,1.2-0.2,1.7c-0.2,0.2-0.1,0.6,0.1,0.7c0,0,0,0,0,0c0.1,0.1,0.2,0.1,0.3,0.1c0.2,0,0.3-0.1,0.4-0.2
	c0.7-0.8,0.8-1.9,0.3-2.8C73.9,25,73.6,24.9,73.3,25.1C73.3,25.1,73.3,25.1,73.3,25.1L73.3,25.1z"/>
</svg>
