<?xml version="1.0" encoding="utf-8"?>
<!-- Generator: Adobe Illustrator 27.1.1, SVG Export Plug-In . SVG Version: 6.00 Build 0)  -->
<svg version="1.1"
	 id="Calque_1" xmlns:dc="http://purl.org/dc/elements/1.1/" xmlns:cc="http://creativecommons.org/ns#" xmlns:svg="http://www.w3.org/2000/svg" xmlns:rdf="http://www.w3.org/1999/02/22-rdf-syntax-ns#" xmlns:sodipodi="http://sodipodi.sourceforge.net/DTD/sodipodi-0.dtd" xmlns:inkscape="http://www.inkscape.org/namespaces/inkscape" inkscape:export-filename="./Tux Mono.png"
	 xmlns="http://www.w3.org/2000/svg" xmlns:xlink="http://www.w3.org/1999/xlink" x="0px" y="0px" viewBox="0 0 95 95"
	 style="enable-background:new 0 0 95 95;" xml:space="preserve">
<defs>
	<inkscape:path-effect  effect="spiro" id="path-effect29672-0" is_visible="true"></inkscape:path-effect>
	<inkscape:path-effect  effect="spiro" id="path-effect29678-1" is_visible="true"></inkscape:path-effect>
	<inkscape:path-effect  effect="spiro" id="path-effect29678-4-6" is_visible="true"></inkscape:path-effect>
	<inkscape:path-effect  effect="spiro" id="path-effect28714-5" is_visible="true"></inkscape:path-effect>
	<inkscape:path-effect  effect="spiro" id="path-effect29721-2" is_visible="true"></inkscape:path-effect>
	<inkscape:path-effect  effect="spiro" id="path-effect28463-8-0" is_visible="true"></inkscape:path-effect>
	<inkscape:path-effect  effect="spiro" id="path-effect28463-0-7" is_visible="true"></inkscape:path-effect>
	<inkscape:path-effect  effect="spiro" id="path-effect28797-8-1" is_visible="true"></inkscape:path-effect>
	<inkscape:path-effect  effect="spiro" id="path-effect28797-81" is_visible="true"></inkscape:path-effect>
	<inkscape:path-effect  effect="spiro" id="path-effect28273-4-2" is_visible="true"></inkscape:path-effect>
	<inkscape:path-effect  effect="spiro" id="path-effect28851-0" is_visible="true"></inkscape:path-effect>
	<inkscape:path-effect  effect="spiro" id="path-effect28881-6" is_visible="true"></inkscape:path-effect>
	<inkscape:path-effect  effect="spiro" id="path-effect28974-8" is_visible="true"></inkscape:path-effect>
	<inkscape:path-effect  effect="spiro" id="path-effect29455-3" is_visible="true"></inkscape:path-effect>
	<inkscape:path-effect  effect="spiro" id="path-effect28463-4" is_visible="true"></inkscape:path-effect>
	<inkscape:path-effect  effect="spiro" id="path-effect28489-4" is_visible="true"></inkscape:path-effect>
	<inkscape:path-effect  effect="spiro" id="path-effect28273-54-7" is_visible="true"></inkscape:path-effect>
	<inkscape:path-effect  effect="spiro" id="path-effect28273-44" is_visible="true"></inkscape:path-effect>
	<inkscape:path-effect  effect="spiro" id="path-effect28384-7" is_visible="true"></inkscape:path-effect>
	<inkscape:path-effect  effect="spiro" id="path-effect29553-7" is_visible="true"></inkscape:path-effect>
	<inkscape:path-effect  effect="spiro" id="path-effect29707-7-6" is_visible="true"></inkscape:path-effect>
	<inkscape:path-effect  effect="spiro" id="path-effect4500-7" is_visible="true"></inkscape:path-effect>
	<inkscape:path-effect  effect="spiro" id="path-effect4582-3" is_visible="true"></inkscape:path-effect>
	<inkscape:path-effect  effect="spiro" id="path-effect14300-7" is_visible="true"></inkscape:path-effect>
	<inkscape:path-effect  effect="spiro" id="path-effect14300-2-7" is_visible="true"></inkscape:path-effect>
	<inkscape:path-effect  effect="spiro" id="path-effect14300-2-2-0" is_visible="true"></inkscape:path-effect>
	<inkscape:path-effect  effect="spiro" id="path-effect29716-0-0" is_visible="true"></inkscape:path-effect>
	<inkscape:path-effect  effect="spiro" id="path-effect29716-0-8-3" is_visible="true"></inkscape:path-effect>
	<inkscape:path-effect  effect="spiro" id="path-effect29716-6-1" is_visible="true"></inkscape:path-effect>
	<inkscape:path-effect  effect="spiro" id="path-effect14972-2-2" is_visible="true"></inkscape:path-effect>
	<inkscape:path-effect  effect="spiro" id="path-effect15017-9" is_visible="true"></inkscape:path-effect>
	<inkscape:path-effect  effect="spiro" id="path-effect4669-1" is_visible="true"></inkscape:path-effect>
	<inkscape:path-effect  effect="spiro" id="path-effect4669-4-3" is_visible="true"></inkscape:path-effect>
</defs>
<sodipodi:namedview  bordercolor="#666666" borderopacity="1" gridtolerance="10" guidetolerance="10" id="namedview19" inkscape:current-layer="Calque_1" inkscape:cx="730.76384" inkscape:cy="436.78527" inkscape:pageopacity="0" inkscape:pageshadow="2" inkscape:window-height="1061" inkscape:window-maximized="0" inkscape:window-width="1341" inkscape:window-x="0" inkscape:window-y="0" inkscape:zoom="0.25" objecttolerance="10" pagecolor="#ffffff" showgrid="false">
	</sodipodi:namedview>
<g>
	<path d="M42.6,24.2c0-0.3,0.3-0.4,0.6-0.5c0.3-0.1,0.7-0.2,1,0c0.1,0,0.1,0.1,0.1,0.2c-0.1,0.2-0.4,0.2-0.6,0.3
		c-0.2,0.1-0.3,0.3-0.5,0.3C42.9,24.5,42.6,24.4,42.6,24.2z"/>
	<path d="M46.3,23.9c0-0.1,0-0.2,0.1-0.2c0.3-0.2,0.7-0.1,1,0c0.2,0.1,0.6,0.3,0.6,0.5c0,0.2-0.3,0.3-0.5,0.3
		c-0.2,0-0.3-0.2-0.5-0.3C46.7,24.1,46.4,24.1,46.3,23.9z"/>
	<path d="M38.3,27.5c0.4,0.1,0.5,0.6,0.8,0.9c0.4,0.3,0.8,0.8,1.4,1.2c1.1,0.9,2.6,1.7,4.4,1.7c1.8,0,4-1.1,5.3-1.8
		c0.7-0.4,1.7-1.2,2.4-1.7c0.6-0.4,0.6-0.9,1-0.9c0.5,0.1,0.1,0.6-0.6,1.2c-0.7,0.6-1.7,1.4-2.6,1.8c-1.6,0.9-3.6,1.9-5.6,1.9
		c-2,0-3.6-0.9-4.8-1.9c-0.6-0.5-1-0.9-1.4-1.2C38,28.1,38,27.5,38.3,27.5z"/>
	<path d="M82,73.5C82,73.5,82,73.5,82,73.5c-0.6-0.7-0.9-2.1-1.3-3.5c-0.3-1.4-0.7-2.9-1.9-3.9c0,0,0,0,0,0
		c-0.2-0.2-0.5-0.4-0.7-0.5c-0.2-0.1-0.5-0.3-0.7-0.3c1.6-4.8,1-9.6-0.7-13.9c-2-5.3-5.5-9.9-8.2-13.1c-3-3.8-5.9-7.4-5.9-12.7
		c0.1-8.1,0.9-23.1-13.3-23.1c-0.6,0-1.2,0-1.8,0.1C31.7,3.8,35.9,20.6,35.7,26.3c-0.3,4.1-1.1,7.4-4,11.4c-3.3,4-8,10.3-10.2,17
		c-1,3.1-1.5,6.3-1.1,9.4c-0.1,0.1-0.3,0.3-0.4,0.4c-1,1-1.7,2.3-2.5,3.2c-0.8,0.7-1.8,1-3,1.5c-1.2,0.4-2.5,1-3.2,2.5c0,0,0,0,0,0
		c0,0,0,0,0,0c-0.4,0.7-0.5,1.4-0.5,2.2c0,0.7,0.1,1.4,0.2,2.1c0.2,1.4,0.4,2.7,0.1,3.7c-0.9,2.5-1,4.3-0.4,5.6
		c0.7,1.3,2,1.8,3.5,2.2c3,0.6,7.2,0.5,10.4,2.2l0.3-0.5l-0.3,0.5c3.5,1.8,7,2.5,9.8,1.8c2-0.5,3.7-1.7,4.6-3.6
		c2.2,0,4.6-0.9,8.5-1.2c2.6-0.2,5.9,0.9,9.7,0.7c0.1,0.4,0.2,0.8,0.4,1.2c0,0,0,0,0,0c1.5,2.9,4.2,4.3,7.1,4c2.9-0.2,6-1.9,8.5-4.9
		l-0.5-0.4l0.5,0.4c2.4-2.9,6.3-4.1,8.9-5.7c1.3-0.8,2.4-1.8,2.5-3.2C84.8,77.3,83.9,75.7,82,73.5z M46.9,20.7c0-1.1,0.2-2,0.6-2.9
		c0.4-0.9,0.9-1.6,1.6-2.1c0.7-0.5,1.4-0.8,2.2-0.8h0c0.8,0,1.5,0.2,2.2,0.8c0.7,0.5,1.2,1.2,1.7,2.1c0.4,0.9,0.6,1.8,0.6,2.8
		c0,0,0,0.1,0,0.1c0,1.1-0.2,2-0.6,2.9c-0.2,0.5-0.5,1-0.8,1.3c-0.1-0.1-0.2-0.1-0.3-0.1c-0.4-0.2-0.8-0.3-1.1-0.4s-0.6-0.2-0.8-0.3
		c0.2-0.2,0.5-0.5,0.7-0.8c0.2-0.5,0.3-1,0.3-1.6c0,0,0,0,0-0.1c0-0.6-0.1-1-0.2-1.5c-0.2-0.5-0.4-0.9-0.7-1.2
		c-0.3-0.3-0.6-0.4-1-0.5c0,0,0,0-0.1,0c-0.4,0-0.7,0.1-1,0.4c-0.3,0.3-0.6,0.6-0.8,1.1c-0.2,0.5-0.3,1-0.3,1.6c0,0,0,0,0,0.1
		c0,0.3,0,0.6,0.1,0.9c-0.7-0.4-1.6-0.6-2.3-0.8C46.9,21.4,46.9,21.1,46.9,20.7L46.9,20.7z M37.5,18.5c0.3-0.8,0.6-1.4,1.1-1.9
		c0.5-0.5,1-0.7,1.6-0.8c0,0,0.1,0,0.1,0c0.5,0,1,0.2,1.5,0.6c0.5,0.4,0.9,1,1.3,1.8c0.3,0.8,0.5,1.5,0.6,2.5v0c0,0.4,0,0.7,0,1.1
		c-0.1,0-0.2,0.1-0.3,0.1c-0.6,0.2-1,0.4-1.5,0.7c0-0.3,0-0.6,0-1c0,0,0,0,0-0.1c0-0.5-0.1-0.8-0.3-1.2c-0.2-0.4-0.4-0.7-0.6-0.9
		c-0.2-0.2-0.4-0.3-0.7-0.3c0,0,0,0-0.1,0c-0.3,0-0.5,0.2-0.7,0.4c-0.2,0.3-0.4,0.6-0.5,1c-0.1,0.4-0.1,0.8-0.1,1.3c0,0,0,0,0,0.1
		c0,0.5,0.1,0.9,0.3,1.2c0.2,0.4,0.4,0.7,0.6,0.9c0,0,0.1,0.1,0.1,0.1c-0.3,0.2-0.4,0.3-0.7,0.5c-0.1,0.1-0.3,0.2-0.5,0.4
		c-0.4-0.4-0.7-0.9-1-1.5c-0.3-0.8-0.5-1.5-0.6-2.5v0C37.1,20.1,37.2,19.3,37.5,18.5z M37.9,26.5c0.8-0.6,1.4-1.1,1.8-1.3
		c0.4-0.3,0.5-0.4,0.7-0.5c0,0,0,0,0,0l0,0c0.6-0.6,1.6-1.7,3.2-2.2c0.5-0.2,1.1-0.3,1.8-0.3c1.2,0,2.7,0.4,4.6,1.6
		c1.1,0.7,2,0.8,4,1.6l0,0l0,0c1,0.4,1.5,0.9,1.8,1.4c0.3,0.5,0.3,1.1,0.1,1.7c-0.5,1.2-1.9,2.5-4,3.2l0,0l0,0c-1,0.3-1.9,1-2.9,1.6
		c-1,0.6-2.2,1.1-3.8,1c-0.7,0-1.2-0.2-1.7-0.4c-0.5-0.2-0.8-0.5-1.2-0.8c-0.7-0.6-1.4-1.3-2.3-1.9l0,0l0,0
		c-1.5-0.9-2.3-1.8-2.6-2.7C36.9,27.8,37.2,27.1,37.9,26.5z M38.5,85.2L38.5,85.2L38.5,85.2c-0.2,2.8-1.8,4.3-4.2,4.9
		c-2.4,0.6-5.7,0-9-1.7c0,0,0,0,0,0c-3.6-1.9-8-1.7-10.7-2.3c-1.4-0.3-2.3-0.7-2.7-1.5c-0.4-0.8-0.4-2.2,0.5-4.6l0,0l0,0
		c0.4-1.3,0.1-2.8-0.1-4.2c-0.2-1.4-0.3-2.6,0.2-3.5l0,0c0.6-1.2,1.5-1.6,2.6-2c1.1-0.4,2.4-0.7,3.4-1.7l0,0l0,0
		c1-1,1.7-2.3,2.5-3.2c0.7-0.8,1.4-1.3,2.5-1.3c0,0,0,0,0,0c0.2,0,0.4,0,0.6,0c1.4,0.2,2.7,1.2,3.8,2.8l3.4,6.3l0,0l0,0
		c0.9,1.9,2.8,4,4.5,6.2C37.4,81.4,38.7,83.5,38.5,85.2z M38.2,80.6c-0.5-0.7-1-1.4-1.5-2.1c-0.3-0.4-0.7-0.9-1-1.3
		c0.7,0,1.3-0.1,1.7-0.3c0.6-0.3,1-0.7,1.2-1.2c0.4-1.1,0-2.6-1.3-4.4c-1.3-1.8-3.5-3.7-6.7-5.7c0,0,0,0,0,0
		c-2.4-1.5-3.7-3.3-4.3-5.3c-0.6-2-0.5-4.1-0.1-6.2c0.9-4,3.3-7.9,4.8-10.4c0.4-0.3,0.1,0.6-1.5,3.7c-1.5,2.8-4.3,9.4-0.5,14.5
		c0.1-3.6,1-7.3,2.4-10.8c2.1-4.8,6.6-13.2,6.9-19.8c0.2,0.1,0.8,0.6,1.1,0.7c0,0,0,0,0,0c0.8,0.5,1.4,1.2,2.2,1.8
		c0.8,0.6,1.8,1.2,3.3,1.3c0.1,0,0.3,0,0.4,0c1.5,0,2.7-0.5,3.8-1.1c1.1-0.6,2-1.3,2.8-1.6c0,0,0,0,0,0c1.7-0.5,3.1-1.5,3.9-2.6
		c1.4,5.3,4.5,13.1,6.5,16.8c1.1,2,3.2,6.2,4.1,11.4c0.6,0,1.2,0.1,1.9,0.2c2.4-6.3-2.1-13-4.1-14.9c-0.8-0.8-0.9-1.2-0.5-1.1
		c2.2,2,5.1,5.9,6.2,10.4c0.5,2,0.6,4.2,0.1,6.3c0.3,0.1,0.5,0.2,0.8,0.3c3.9,1.9,5.3,3.5,4.6,5.8c-0.2,0-0.5,0-0.7,0c0,0,0,0-0.1,0
		c0.6-1.8-0.7-3.1-4-4.6c-3.4-1.5-6.2-1.4-6.7,1.7c0,0.2-0.1,0.3-0.1,0.5c-0.3,0.1-0.5,0.2-0.8,0.3c-1.6,0.9-2.5,2.5-3,4.5
		c-0.5,2-0.6,4.3-0.8,7c0,0,0,0,0,0c-0.1,1.3-0.6,3.2-1.2,5.1C52.7,83.4,44.9,85.2,38.2,80.6z M83.5,78.6c-0.1,0.9-0.7,1.5-1.9,2.3
		c-2.4,1.4-6.6,2.7-9.2,5.9c-2.3,2.8-5.2,4.3-7.7,4.5c-2.5,0.2-4.7-0.8-5.9-3.4l0,0l0,0C58,86.4,58.3,84,59,81.5
		c0.7-2.5,1.6-5.1,1.7-7.1v0c0.1-2.7,0.3-5,0.7-6.8c0.4-1.8,1.2-3,2.4-3.7c0.1,0,0.1-0.1,0.2-0.1c0.1,2.3,1.3,4.7,3.3,5.2
		c2.2,0.6,5.4-1.3,6.8-2.9c0.3,0,0.5,0,0.8,0c1.2,0,2.2,0,3.2,0.9l0,0l0,0c0.8,0.7,1.1,1.9,1.5,3.3c0.3,1.4,0.6,2.9,1.5,4l0,0l0,0
		C82.9,76.4,83.5,77.7,83.5,78.6z"/>
	<path d="M42.6,24.2c0-0.3,0.3-0.4,0.6-0.5c0.3-0.1,0.7-0.2,1,0c0.1,0,0.1,0.1,0.1,0.2c-0.1,0.2-0.4,0.2-0.6,0.3
		c-0.2,0.1-0.3,0.3-0.5,0.3C42.9,24.5,42.6,24.4,42.6,24.2z"/>
	<path d="M46.3,23.9c0-0.1,0-0.2,0.1-0.2c0.3-0.2,0.7-0.1,1,0c0.2,0.1,0.6,0.3,0.6,0.5c0,0.2-0.3,0.3-0.5,0.3
		c-0.2,0-0.3-0.2-0.5-0.3C46.7,24.1,46.4,24.1,46.3,23.9z"/>
	<path d="M53,28c-0.7,0.6-1.7,1.4-2.6,1.8c-1.6,0.9-3.6,1.9-5.6,1.9c-2,0-3.6-0.9-4.8-1.9c-0.6-0.5-1-0.9-1.4-1.2
		c-0.6-0.5-0.5-1.2-0.3-1.1c0.4,0.1,0.5,0.6,0.8,0.9c0.4,0.3,0.8,0.8,1.4,1.2c1.1,0.9,2.6,1.7,4.4,1.7c1.8,0,4-1.1,5.3-1.8
		c0.7-0.4,1.7-1.2,2.4-1.7c0.6-0.4,0.6-0.9,1-0.9C54,26.9,53.7,27.4,53,28z"/>
	<path d="M53,28c-0.7,0.6-1.7,1.4-2.6,1.8c-1.6,0.9-3.6,1.9-5.6,1.9c-2,0-3.6-0.9-4.8-1.9c-0.6-0.5-1-0.9-1.4-1.2
		c-0.6-0.5-0.5-1.2-0.3-1.1c0.4,0.1,0.5,0.6,0.8,0.9c0.4,0.3,0.8,0.8,1.4,1.2c1.1,0.9,2.6,1.7,4.4,1.7c1.8,0,4-1.1,5.3-1.8
		c0.7-0.4,1.7-1.2,2.4-1.7c0.6-0.4,0.6-0.9,1-0.9C54,26.9,53.7,27.4,53,28z"/>
	<path d="M48,24.2c0,0.2-0.3,0.3-0.5,0.3c-0.2,0-0.3-0.2-0.5-0.3c-0.2-0.1-0.6-0.1-0.6-0.3c0-0.1,0-0.2,0.1-0.2c0.3-0.2,0.7-0.1,1,0
		C47.6,23.8,48,24,48,24.2z"/>
	<path d="M44.2,23.9c-0.1,0.2-0.4,0.2-0.6,0.3c-0.2,0.1-0.3,0.3-0.5,0.3c-0.2,0-0.5-0.1-0.5-0.3c0-0.3,0.3-0.4,0.6-0.5
		c0.3-0.1,0.7-0.2,1,0C44.2,23.7,44.3,23.8,44.2,23.9z"/>
</g>
</svg>
