<?xml version="1.0" encoding="utf-8"?>
<!-- Generator: Adobe Illustrator 27.1.1, SVG Export Plug-In . SVG Version: 6.00 Build 0)  -->
<svg version="1.1" id="Layer_1" xmlns="http://www.w3.org/2000/svg" xmlns:xlink="http://www.w3.org/1999/xlink" x="0px" y="0px"
	 viewBox="0 0 95 95" style="enable-background:new 0 0 95 95;" xml:space="preserve">
<style type="text/css">
	.st0{fill-rule:evenodd;clip-rule:evenodd;}
</style>
<path class="st0" d="M87.8,13.5L69.9,4.9c-0.7-0.3-1.4-0.5-2.1-0.5l-0.2,0h-0.2c-1.4,0-2.7,0.6-3.7,1.6L29.6,37.1L14.7,25.8
	c-1.4-1.1-3.3-1-4.6,0.2l-4.8,4.3C4.6,31.1,4.1,32,4.1,33v0c0,1,0.4,2,1.2,2.7l12.9,11.8L5.3,59.3c-1.5,1.3-1.6,3.6-0.2,5.1
	c0.1,0.1,0.2,0.2,0.2,0.2l4.8,4.3c1.3,1.2,3.2,1.3,4.6,0.2l14.9-11.3L63.7,89c0.9,0.9,2.1,1.4,3.3,1.6l0.1,0c0.1,0,0.2,0,0.2,0
	c0.1,0,0.2,0,0.3,0l0.1,0c0.7,0,1.5-0.2,2.2-0.5l17.9-8.6c1.9-0.9,3.1-2.8,3.1-4.9V18.4C90.9,16.3,89.7,14.4,87.8,13.5z M69.2,67.1
	L43.3,47.5l25.9-19.6V67.1z"/>
</svg>
